{
  "accessors": [
    {
      "bufferView": 2,
      "componentType": 5126,
      "count": 1131,
      "max": [
        25.000045776367188,
        8.997947692871094,
        21.146747589111328
      ],
      "min": [
        -25.000045776367188,
        -8.997879028320313,
        -28.71894073486328
      ],
      "type": "VEC3"
    },
    {
      "bufferView": 2,
      "byteOffset": 13572,
      "componentType": 5126,
      "count": 1131,
      "max": [
        1.0,
        1.0,
        1.0
      ],
      "min": [
        -1.0,
        -1.0,
        -1.0
      ],
      "type": "VEC3"
    },
    {
      "bufferView": 3,
      "componentType": 5126,
      "count": 1131,
      "max": [
        1.0,
        1.0,
        1.0,
        1.0
      ],
      "min": [
        -0.9999967813491821,
        -1.0,
        -1.0,
        1.0
      ],
      "type": "VEC4"
    },
    {
      "bufferView": 1,
      "componentType": 5126,
      "count": 1131,
      "max": [
        0.9817376136779785,
        0.9833412170410156
      ],
      "min": [
        0.01483917236328125,
        0.019891738891601563
      ],
      "type": "VEC2"
    },
    {
      "bufferView": 1,
      "byteOffset": 9048,
      "componentType": 5126,
      "count": 1131,
      "max": [
        0.9379826784133911,
        0.9193069934844971
      ],
      "min": [
        0.06201732158660889,
        0.06078252196311951
      ],
      "type": "VEC2"
    },
    {
      "bufferView": 0,
      "componentType": 5125,
      "count": 3156,
      "type": "SCALAR"
    }
  ],
  "asset": {
    "extras": {
      "author": "TheoClarke (https://sketchfab.com/TheoClarke)",
      "license": "CC-BY-4.0 (http://creativecommons.org/licenses/by/4.0/)",
      "source": "https://sketchfab.com/3d-models/first-aid-box-edaba58075ff4796a3ff5c4a43a765a7",
      "title": "First Aid Box"
    },
    "generator": "Sketchfab-12.63.0",
    "version": "2.0"
  },
  "bufferViews": [
    {
      "buffer": 0,
      "byteLength": 12624,
      "name": "floatBufferViews",
      "target": 34963
    },
    {
      "buffer": 0,
      "byteLength": 18096,
      "byteOffset": 12624,
      "byteStride": 8,
      "name": "floatBufferViews",
      "target": 34962
    },
    {
      "buffer": 0,
      "byteLength": 27144,
      "byteOffset": 30720,
      "byteStride": 12,
      "name": "floatBufferViews",
      "target": 34962
    },
    {
      "buffer": 0,
      "byteLength": 18096,
      "byteOffset": 57864,
      "byteStride": 16,
      "name": "floatBufferViews",
      "target": 34962
    }
  ],
  "buffers": [
    {
      "byteLength": 75960,
      "uri": "scene.bin"
    }
  ],
  "images": [
    {
      "uri": "textures/lambert2_baseColor.png"
    },
    {
      "uri": "textures/lambert2_metallicRoughness.png"
    },
    {
      "uri": "textures/lambert2_normal.png"
    }
  ],
  "materials": [
    {
      "doubleSided": true,
      "name": "lambert2",
      "normalTexture": {
        "index": 2
      },
      "occlusionTexture": {
        "index": 1
      },
      "pbrMetallicRoughness": {
        "baseColorTexture": {
          "index": 0
        },
        "metallicFactor": 0.0,
        "metallicRoughnessTexture": {
          "index": 1
        }
      }
    }
  ],
  "meshes": [
    {
      "name": "pCube19_lambert2_0",
      "primitives": [
        {
          "attributes": {
            "NORMAL": 1,
            "POSITION": 0,
            "TANGENT": 2,
            "TEXCOORD_0": 3,
            "TEXCOORD_1": 4
          },
          "indices": 5,
          "material": 0,
          "mode": 4
        }
      ]
    }
  ],
  "nodes": [
    {
      "children": [
        1
      ],
      "matrix": [
        1.0,
        0.0,
        0.0,
        0.0,
        0.0,
        2.220446049250313e-16,
        -1.0,
        0.0,
        0.0,
        1.0,
        2.220446049250313e-16,
        0.0,
        0.0,
        0.0,
        0.0,
        1.0
      ],
      "name": "Sketchfab_model"
    },
    {
      "children": [
        2
      ],
      "matrix": [
        1.0,
        0.0,
        0.0,
        0.0,
        0.0,
        0.0,
        1.0,
        0.0,
        0.0,
        -1.0,
        0.0,
        0.0,
        0.0,
        0.0,
        0.0,
        1.0
      ],
      "name": "5f60e5e0e041450f9f3c33b04ff6377c.fbx"
    },
    {
      "children": [
        3
      ],
      "name": "RootNode"
    },
    {
      "children": [
        4
      ],
      "matrix": [
        0.7512176632881165,
        0.0,
        0.0,
        0.0,
        0.0,
        1.6680382925751501e-16,
        0.7512176632881165,
        0.0,
        0.0,
        -0.7512176632881165,
        1.6680382925751501e-16,
        0.0,
        0.0,
        15.885809898376465,
        -1.7763568394002505e-15,
        1.0
      ],
      "name": "pCube19"
    },
    {
      "mesh": 0,
      "name": "pCube19_lambert2_0"
    }
  ],
  "samplers": [
    {
      "magFilter": 9729,
      "minFilter": 9987,
      "wrapS": 10497,
      "wrapT": 10497
    }
  ],
  "scene": 0,
  "scenes": [
    {
      "name": "Sketchfab_Scene",
      "nodes": [
        0
      ]
    }
  ],
  "textures": [
    {
      "sampler": 0,
      "source": 0
    },
    {
      "sampler": 0,
      "source": 1
    },
    {
      "sampler": 0,
      "source": 2
    }
  ]
}
